<?xml version="1.0" encoding="utf-8"?>
<!-- Generator: Adobe Illustrator 24.1.2, SVG Export Plug-In . SVG Version: 6.00 Build 0)  -->
<svg version="1.1" id="Layer_1" xmlns="http://www.w3.org/2000/svg" xmlns:xlink="http://www.w3.org/1999/xlink" x="0px" y="0px"
	 viewBox="0 0 64 64" style="enable-background:new 0 0 64 64;" xml:space="preserve">
<style type="text/css">
	.st0{fill:none;}
	.st1{fill:#2900FF;}
	.st2{fill:#000086;}
	.st3{fill:#FFFFFF;}
</style>
<g>
	<rect class="st0" width="64" height="64"/>
	<g>
		<path class="st1" d="M60.89,32v24.44c0,0.13,0,0.26-0.02,0.38c-0.04,0.41-0.12,0.8-0.27,1.17c-0.02,0.07-0.05,0.13-0.08,0.2
			c-0.68,1.58-2.25,2.69-4.08,2.69H32C16.05,60.89,3.11,47.95,3.11,32v0C3.11,16.05,16.05,3.11,32,3.11h0
			C47.95,3.11,60.89,16.05,60.89,32z"/>
		<g>
			<path class="st2" d="M8.3,32.73l5.84-16.06c0.14-0.38,0.5-0.64,0.91-0.64h2.37c0.41,0,0.77,0.26,0.91,0.64l5.84,16.06
				c0.23,0.63-0.24,1.3-0.91,1.3H21.5c-0.41,0-0.77-0.26-0.91-0.64l-0.9-2.51c-0.14-0.38-0.5-0.64-0.91-0.64H13.7
				c-0.41,0-0.78,0.26-0.91,0.65l-0.89,2.5c-0.14,0.39-0.5,0.65-0.91,0.65H9.21C8.54,34.03,8.07,33.36,8.3,32.73z M15.69,27.04h1.06
				c0.67,0,1.14-0.66,0.91-1.29l-1.44-4.04l-1.45,4.03C14.55,26.38,15.02,27.04,15.69,27.04z"/>
			<path class="st2" d="M40.98,19.95l-8.08,8.8c-0.57,0.62-0.13,1.63,0.71,1.63h6.97c0.54,0,0.97,0.43,0.97,0.97v1.71
				c0,0.54-0.43,0.97-0.97,0.97H27.6c-0.54,0-0.97-0.43-0.97-0.97v-2.3c0-0.24,0.09-0.48,0.25-0.66l8.07-8.8
				c0.57-0.62,0.13-1.62-0.71-1.62h-6.51c-0.54,0-0.97-0.43-0.97-0.97V17c0-0.54,0.43-0.97,0.97-0.97h12.54
				c0.54,0,0.97,0.43,0.97,0.97v2.3C41.24,19.54,41.15,19.77,40.98,19.95z"/>
			<path class="st2" d="M17.27,45.05h6.56c0.58,0,1.03,0.51,0.96,1.08l-0.2,1.71c-0.06,0.49-0.47,0.86-0.96,0.86h-0.44v0.45
				c0,0.8,0.16,1.43,0.49,1.91c0.21,0.31,0.54,0.56,1,0.75c0.48,0.21,0.73,0.73,0.56,1.23l-0.65,1.82
				c-0.16,0.45-0.62,0.72-1.09,0.63c-0.36-0.07-0.7-0.18-1.02-0.34c-0.32-0.16-0.62-0.37-0.89-0.63c-0.32-0.31-0.82-0.37-1.19-0.12
				c-1.07,0.72-2.37,1.09-3.91,1.09c-1.14,0-2.2-0.17-3.2-0.5c-1-0.33-1.87-0.87-2.62-1.62c-0.75-0.75-1.35-1.72-1.78-2.91
				c-0.43-1.19-0.65-2.66-0.65-4.39c0-1.54,0.2-2.89,0.59-4.06c0.39-1.17,0.95-2.16,1.67-2.95c0.73-0.8,1.6-1.4,2.63-1.8
				c1.03-0.41,2.19-0.61,3.47-0.61c1.58,0,2.95,0.34,4.13,1.03c0.91,0.54,1.72,1.24,2.42,2.12c0.34,0.42,0.25,1.04-0.18,1.37
				l-1.4,1.08c-0.42,0.32-1.01,0.24-1.35-0.17c-0.33-0.41-0.72-0.76-1.17-1.06c-0.73-0.48-1.55-0.72-2.47-0.72
				c-0.7,0-1.33,0.13-1.9,0.41c-0.57,0.27-1.05,0.66-1.45,1.16c-0.4,0.5-0.71,1.11-0.93,1.82c-0.22,0.71-0.33,1.51-0.33,2.39
				c0,1,0.11,1.86,0.33,2.58c0.22,0.73,0.53,1.33,0.93,1.8c0.4,0.48,0.87,0.83,1.43,1.06c0.55,0.23,1.17,0.34,1.83,0.34
				c0.43,0,0.84-0.07,1.25-0.2c0.41-0.13,0.76-0.33,1.08-0.6c0.31-0.26,0.57-0.59,0.76-0.98c0,0,0-0.01,0.01-0.01
				c0.3-0.62-0.19-1.34-0.88-1.34h-1.43c-0.54,0-0.97-0.43-0.97-0.97v-1.71C16.3,45.48,16.74,45.05,17.27,45.05z"/>
			<path class="st2" d="M27.12,53.75l5.84-16.06c0.14-0.38,0.5-0.64,0.91-0.64h2.37c0.41,0,0.77,0.26,0.91,0.64L43,53.75
				c0.23,0.63-0.24,1.3-0.91,1.3h-1.77c-0.41,0-0.77-0.26-0.91-0.64l-0.9-2.51c-0.14-0.38-0.5-0.64-0.91-0.64h-5.07
				c-0.41,0-0.78,0.26-0.91,0.65l-0.89,2.5c-0.14,0.39-0.5,0.65-0.91,0.65h-1.77C27.36,55.05,26.89,54.38,27.12,53.75z M34.51,48.07
				h1.06c0.67,0,1.14-0.66,0.91-1.29l-1.44-4.04l-1.45,4.03C33.37,47.4,33.84,48.07,34.51,48.07z"/>
			<path class="st2" d="M58.78,51.05c-0.33-0.47-0.49-1.11-0.49-1.91V48.7h0.44c0.49,0,0.91-0.37,0.97-0.86l0.2-1.71
				c0.02-0.19-0.01-0.38-0.1-0.54c-0.16-0.32-0.48-0.54-0.87-0.54h-6.56c-0.53,0-0.97,0.44-0.97,0.97v1.71
				c0,0.53,0.43,0.97,0.97,0.97h1.43c0.28,0,0.52,0.12,0.69,0.29c0.26,0.27,0.37,0.68,0.19,1.04c0,0,0,0.01-0.01,0.01
				c-0.19,0.4-0.44,0.72-0.76,0.98c-0.31,0.26-0.67,0.46-1.08,0.59c-0.4,0.14-0.82,0.21-1.25,0.21c-0.67,0-1.28-0.12-1.84-0.34
				c-0.55-0.23-1.03-0.58-1.43-1.06c-0.4-0.48-0.71-1.08-0.93-1.8c-0.22-0.73-0.33-1.58-0.33-2.58c0-0.22,0.01-0.44,0.02-0.65
				c0,0,0-0.01,0-0.01c0.05-0.63,0.15-1.2,0.31-1.73c0.22-0.71,0.53-1.33,0.93-1.83c0.4-0.51,0.88-0.89,1.45-1.16
				c0.57-0.27,1.2-0.4,1.9-0.4c0.92,0,1.75,0.24,2.47,0.73c0.45,0.3,0.85,0.65,1.18,1.06c0.33,0.41,0.92,0.48,1.34,0.16l1.4-1.07
				c0.42-0.33,0.51-0.95,0.17-1.37l-0.08-0.1c-0.68-0.83-1.46-1.51-2.34-2.03c-1.18-0.69-2.55-1.03-4.13-1.03
				c-1.28,0-2.43,0.2-3.46,0.6c-1.04,0.41-1.91,1.01-2.64,1.8c-0.73,0.8-1.28,1.79-1.67,2.95c-0.34,1-0.52,2.14-0.57,3.41
				c-0.01,0.22-0.01,0.44-0.01,0.66c0,1.73,0.22,3.19,0.65,4.39c0.43,1.19,1.03,2.17,1.78,2.91c0.75,0.75,1.63,1.29,2.62,1.62
				c0.99,0.34,2.06,0.5,3.2,0.5c1.53,0,2.84-0.36,3.91-1.09c0.37-0.25,0.87-0.19,1.19,0.12c0.27,0.26,2.92,2.03,3.24,2.19
				c0.07,0.03,0.38,0.23,0.66,0.4c0.15-0.38,0.24-0.79,0.28-1.21c0.01-0.13,0.02-0.26,0.02-0.4v-2.92
				C59.87,51.9,58.88,51.21,58.78,51.05z"/>
		</g>
		<g>
			<path class="st3" d="M8.3,29.98l5.84-16.06c0.14-0.38,0.5-0.64,0.91-0.64h2.37c0.41,0,0.77,0.26,0.91,0.64l5.84,16.06
				c0.23,0.63-0.24,1.3-0.91,1.3H21.5c-0.41,0-0.77-0.26-0.91-0.64l-0.9-2.51c-0.14-0.38-0.5-0.64-0.91-0.64H13.7
				c-0.41,0-0.78,0.26-0.91,0.65l-0.89,2.5c-0.14,0.39-0.5,0.65-0.91,0.65H9.21C8.54,31.28,8.07,30.61,8.3,29.98z M15.69,23.84h1.06
				c0.67,0,1.14-0.66,0.91-1.29l-1.44-4.04l-1.45,4.03C14.55,23.17,15.02,23.84,15.69,23.84z"/>
			<path class="st3" d="M40.98,17.21l-8.08,8.8c-0.57,0.62-0.13,1.63,0.71,1.63h6.97c0.54,0,0.97,0.43,0.97,0.97v1.71
				c0,0.54-0.43,0.97-0.97,0.97H27.6c-0.54,0-0.97-0.43-0.97-0.97v-2.3c0-0.24,0.09-0.48,0.25-0.66l8.07-8.8
				c0.57-0.62,0.13-1.62-0.71-1.62h-6.51c-0.54,0-0.97-0.43-0.97-0.97v-1.71c0-0.54,0.43-0.97,0.97-0.97h12.54
				c0.54,0,0.97,0.43,0.97,0.97v2.3C41.24,16.79,41.15,17.03,40.98,17.21z"/>
			<path class="st3" d="M17.27,42.3h6.56c0.58,0,1.03,0.51,0.96,1.08l-0.2,1.71c-0.06,0.49-0.47,0.86-0.96,0.86h-0.44v0.45
				c0,0.8,0.16,1.43,0.49,1.91c0.21,0.31,0.54,0.56,1,0.75c0.48,0.21,0.73,0.73,0.56,1.23l-0.65,1.82
				c-0.16,0.45-0.62,0.72-1.09,0.63c-0.36-0.07-0.7-0.18-1.02-0.34c-0.32-0.16-0.62-0.37-0.89-0.63c-0.32-0.31-0.82-0.37-1.19-0.12
				c-1.07,0.72-2.37,1.09-3.91,1.09c-1.14,0-2.2-0.17-3.2-0.5c-1-0.33-1.87-0.87-2.62-1.62c-0.75-0.75-1.35-1.72-1.78-2.91
				c-0.43-1.19-0.65-2.66-0.65-4.39c0-1.54,0.2-2.89,0.59-4.06c0.39-1.17,0.95-2.16,1.67-2.95c0.73-0.8,1.6-1.4,2.63-1.8
				c1.03-0.41,2.19-0.61,3.47-0.61c1.58,0,2.95,0.34,4.13,1.03c0.91,0.54,1.72,1.24,2.42,2.12c0.34,0.42,0.25,1.04-0.18,1.37
				l-1.4,1.08c-0.42,0.32-1.01,0.24-1.35-0.17c-0.33-0.41-0.72-0.76-1.17-1.06c-0.73-0.48-1.55-0.72-2.47-0.72
				c-0.7,0-1.33,0.13-1.9,0.41c-0.57,0.27-1.05,0.66-1.45,1.16c-0.4,0.5-0.71,1.11-0.93,1.82c-0.22,0.71-0.33,1.51-0.33,2.39
				c0,1,0.11,1.86,0.33,2.58c0.22,0.73,0.53,1.33,0.93,1.8c0.4,0.48,0.87,0.83,1.43,1.06c0.55,0.23,1.17,0.34,1.83,0.34
				c0.43,0,0.84-0.07,1.25-0.2c0.41-0.13,0.76-0.33,1.08-0.6c0.31-0.26,0.57-0.59,0.76-0.98c0,0,0-0.01,0.01-0.01
				c0.3-0.62-0.19-1.34-0.88-1.34h-1.43c-0.54,0-0.97-0.43-0.97-0.97v-1.71C16.3,42.74,16.74,42.3,17.27,42.3z"/>
			<path class="st3" d="M27.12,51.01l5.84-16.06c0.14-0.38,0.5-0.64,0.91-0.64h2.37c0.41,0,0.77,0.26,0.91,0.64L43,51.01
				c0.23,0.63-0.24,1.3-0.91,1.3h-1.77c-0.41,0-0.77-0.26-0.91-0.64l-0.9-2.51c-0.14-0.38-0.5-0.64-0.91-0.64h-5.07
				c-0.41,0-0.78,0.26-0.91,0.65l-0.89,2.5c-0.14,0.39-0.5,0.65-0.91,0.65h-1.77C27.36,52.31,26.89,51.64,27.12,51.01z M34.51,44.86
				h1.06c0.67,0,1.14-0.66,0.91-1.29l-1.44-4.04l-1.45,4.03C33.37,44.2,33.84,44.86,34.51,44.86z"/>
			<path class="st3" d="M58.78,48.31c-0.19-0.27-0.32-0.6-0.4-0.98c-0.06-0.28-0.09-0.59-0.09-0.93v-0.45h0.44
				c0.49,0,0.91-0.37,0.97-0.86l0.1-0.87l0.1-0.84c0.06-0.58-0.39-1.09-0.97-1.09h-6.56c-0.53,0-0.97,0.44-0.97,0.97v1.71
				c0,0.53,0.43,0.97,0.97,0.97h1.43c0.69,0,1.18,0.72,0.88,1.34c0,0,0,0.01-0.01,0.01c-0.06,0.12-0.12,0.22-0.18,0.32
				c-0.16,0.25-0.35,0.47-0.58,0.66c-0.31,0.26-0.67,0.46-1.08,0.59c-0.4,0.14-0.82,0.21-1.25,0.21c-0.67,0-1.28-0.12-1.84-0.34
				c-0.55-0.23-1.03-0.58-1.43-1.06c-0.4-0.48-0.71-1.08-0.93-1.8c-0.16-0.54-0.26-1.15-0.31-1.85c0,0,0-0.01,0-0.01
				c-0.01-0.23-0.02-0.47-0.02-0.72c0-0.89,0.11-1.68,0.33-2.39c0.22-0.71,0.53-1.33,0.93-1.83c0.4-0.51,0.88-0.89,1.45-1.16
				c0.57-0.27,1.2-0.4,1.9-0.4c0.92,0,1.75,0.24,2.47,0.73c0.45,0.3,0.85,0.65,1.18,1.06c0.33,0.41,0.92,0.48,1.34,0.16l1.4-1.07
				c0.03-0.03,0.06-0.05,0.09-0.08c0.34-0.34,0.39-0.9,0.08-1.28c-0.7-0.88-1.51-1.59-2.42-2.13c-1.18-0.69-2.55-1.03-4.13-1.03
				c-1.28,0-2.43,0.2-3.46,0.6c-1.04,0.41-1.91,1.01-2.64,1.8c-0.73,0.8-1.28,1.79-1.67,2.95c-0.39,1.17-0.58,2.53-0.58,4.07
				c0,0.25,0,0.49,0.01,0.72c0.05,1.42,0.26,2.64,0.63,3.67c0.43,1.19,1.03,2.17,1.78,2.91c0.75,0.75,1.63,1.29,2.62,1.62
				c0.99,0.34,2.06,0.5,3.2,0.5c1.53,0,2.84-0.36,3.91-1.09c0.37-0.25,0.87-0.19,1.19,0.12c0.27,0.26,2.92,2.03,3.24,2.19
				c0.08,0.04,0.58,0.35,0.94,0.57c0.01-0.13,0.02-0.26,0.02-0.4v-4.3C59.87,49.16,58.88,48.46,58.78,48.31z"/>
		</g>
	</g>
</g>
</svg>
